<?xml version="1.0" encoding="UTF-8" standalone="no"?><!-- Generator: Gravit.io --><svg xmlns="http://www.w3.org/2000/svg" xmlns:xlink="http://www.w3.org/1999/xlink" style="isolation:isolate" viewBox="0 0 1417.323 1417.323" width="1417.323pt" height="1417.323pt"><defs><clipPath id="_clipPath_xhlLidKzAEQFUoKVe31OuDNJzCq2AnaB"><rect width="1417.323" height="1417.323"/></clipPath></defs><g clip-path="url(#_clipPath_xhlLidKzAEQFUoKVe31OuDNJzCq2AnaB)"><g><path d="M 323.876 125.473 L 323.876 125.473 C 406.155 125.473 472.955 192.273 472.955 274.552 L 472.955 1291.85 C 472.955 1291.85 472.955 1291.85 472.955 1291.85 L 472.955 1291.85 C 390.676 1291.85 323.876 1225.05 323.876 1142.771 L 323.876 125.473 C 323.876 125.473 323.876 125.473 323.876 125.473 Z" style="stroke:none;fill:#3A589A;stroke-miterlimit:10;"/><path d="M 708.661 266.493 L 708.661 266.493 C 749.801 266.493 783.201 299.893 783.201 341.033 L 783.201 687.476 C 783.201 687.476 783.201 687.476 783.201 687.476 L 708.661 687.476 C 667.522 687.476 634.122 654.076 634.122 612.936 L 634.122 341.033 C 634.122 299.893 667.522 266.493 708.661 266.493 Z" style="stroke:none;fill:#367AB9;stroke-miterlimit:10;"/><path d="M 634.122 810.43 L 708.661 810.43 C 749.801 810.43 783.201 843.83 783.201 884.97 L 783.201 1156.873 C 783.201 1198.013 749.801 1231.413 708.661 1231.413 L 708.661 1231.413 C 667.522 1231.413 634.122 1198.013 634.122 1156.873 L 634.122 810.43 C 634.122 810.43 634.122 810.43 634.122 810.43 Z" style="stroke:none;fill:#367AB9;stroke-miterlimit:10;"/><path d="M 1093.447 125.473 L 1093.447 125.473 L 1093.447 1142.771 C 1093.447 1225.05 1026.646 1291.85 944.367 1291.85 L 944.367 1291.85 L 944.367 274.552 C 944.367 192.273 1011.168 125.473 1093.447 125.473 Z" style="stroke:none;fill:#53B7EA;stroke-miterlimit:10;"/></g></g></svg>