<?xml version="1.0" encoding="UTF-8" standalone="no"?><!-- Generator: Gravit.io --><svg xmlns="http://www.w3.org/2000/svg" xmlns:xlink="http://www.w3.org/1999/xlink" style="isolation:isolate" viewBox="0 0 180 180" width="180pt" height="180pt"><defs><clipPath id="_clipPath_3qNd48VKeRXMGJkMbdK64Vixx2Yl5h6n"><rect width="180" height="180"/></clipPath></defs><g clip-path="url(#_clipPath_3qNd48VKeRXMGJkMbdK64Vixx2Yl5h6n)"><rect width="180" height="180" style="fill:rgb(101,121,154)" fill-opacity="0"/><g filter="url(#00BWCdxQpb7SiK6e48PE36LumBfuxPIn)"><path d=" M 24.49 36.37 L 50.4 21.411 L 76.31 6.451 C 83.866 2.089 96.134 2.089 103.69 6.451 L 129.6 21.411 L 155.51 36.37 C 163.066 40.732 169.2 51.357 169.2 60.081 L 169.2 90 L 169.2 119.919 C 169.2 128.643 163.066 139.268 155.51 143.63 L 129.6 158.589 L 103.69 173.549 C 96.134 177.911 83.866 177.911 76.31 173.549 L 50.4 158.589 L 24.49 143.63 C 16.934 139.268 10.8 128.643 10.8 119.919 L 10.8 90 L 10.8 60.081 C 10.8 51.357 16.934 40.732 24.49 36.37 Z  M 27.934 42.286 L 53.829 27.352 L 79.69 12.418 C 81.129 11.596 82.636 11.013 84.211 10.671 C 86.129 10.226 88.048 10.02 90 10.02 C 91.952 10.02 93.871 10.226 95.789 10.671 C 97.364 11.013 98.871 11.596 100.31 12.418 L 126.171 27.352 L 152.066 42.286 C 153.436 43.108 154.703 44.136 155.799 45.335 C 157.135 46.773 158.3 48.314 159.259 50.027 C 160.218 51.706 161.006 53.487 161.588 55.336 C 162.068 56.878 162.342 58.488 162.342 60.132 L 162.342 90 L 162.342 119.903 C 162.342 127.233 158.437 134.049 152.1 137.714 L 126.171 152.648 L 100.31 167.582 C 98.871 168.404 97.364 168.987 95.789 169.329 C 93.871 169.774 91.952 169.98 90 169.98 C 88.048 169.98 86.129 169.774 84.211 169.329 C 82.636 168.987 81.129 168.404 79.69 167.582 L 53.829 152.648 L 27.934 137.714 C 26.564 136.892 25.297 135.864 24.201 134.665 C 22.865 133.227 21.7 131.686 20.741 129.973 C 19.782 128.294 18.994 126.513 18.412 124.664 C 17.932 123.122 17.658 121.512 17.658 119.868 L 17.658 90 L 17.658 60.132 C 17.658 58.488 17.932 56.878 18.412 55.336 C 18.994 53.487 19.782 51.706 20.741 50.027 C 21.7 48.314 22.865 46.773 24.201 45.335 C 25.297 44.136 26.564 43.108 27.934 42.286 Z " fill-rule="evenodd" fill="rgb(0,204,255)"/><g><path d=" M 55.871 106.333 C 56.941 106.868 58.073 107.214 59.238 107.434 C 61.252 107.812 63.298 108.001 65.375 108.001 C 67.42 108.001 69.466 107.812 71.48 107.434 C 72.676 107.214 73.872 106.837 74.973 106.27 C 76.011 105.767 76.956 105.106 77.774 104.287 C 78.466 103.595 79.033 102.808 79.442 101.896 C 79.914 100.889 80.26 99.787 80.449 98.686 C 80.763 97.018 80.921 95.35 80.921 93.682 L 80.921 53.117 L 99.079 53.117 L 99.079 98.088 C 99.079 100.448 98.859 102.84 98.418 105.2 C 98.072 107.183 97.474 109.102 96.656 110.959 C 95.932 112.627 95.019 114.201 93.918 115.68 C 92.848 117.127 91.589 118.449 90.205 119.613 C 88.757 120.841 87.183 121.879 85.515 122.729 C 83.596 123.705 81.613 124.491 79.568 125.089 C 77.522 125.687 75.414 126.096 73.274 126.38 C 70.662 126.694 68.018 126.883 65.375 126.883 C 62.637 126.883 59.899 126.694 57.224 126.348 C 55.021 126.065 52.881 125.593 50.772 124.963 C 48.853 124.397 46.996 123.642 45.202 122.729 C 43.629 121.911 42.118 120.935 40.733 119.802 C 39.317 118.638 38.058 117.348 36.957 115.9 C 35.856 114.452 34.911 112.91 34.188 111.242 C 33.369 109.417 32.771 107.497 32.425 105.546 C 31.985 103.249 31.764 100.889 31.764 98.56 L 31.764 53.117 L 50.049 53.117 L 50.049 93.682 C 50.049 95.35 50.206 97.018 50.489 98.686 C 50.709 99.819 51.056 100.92 51.528 101.959 C 51.937 102.871 52.503 103.69 53.196 104.413 C 53.982 105.2 54.895 105.83 55.871 106.333 Z  M 65.375 120.589 C 62.92 120.589 60.465 120.4 58.011 120.086 C 56.185 119.865 54.36 119.488 52.566 118.921 C 51.024 118.481 49.514 117.851 48.097 117.127 C 46.87 116.498 45.769 115.774 44.699 114.924 C 43.692 114.075 42.747 113.131 41.961 112.092 C 41.143 111.022 40.482 109.889 39.947 108.662 C 39.317 107.309 38.877 105.861 38.593 104.382 C 38.216 102.462 38.058 100.511 38.058 98.56 L 38.058 59.411 L 43.755 59.411 L 43.755 93.682 C 43.755 95.728 43.943 97.805 44.321 99.819 C 44.604 101.455 45.108 103.06 45.8 104.571 C 46.524 106.144 47.499 107.592 48.727 108.851 C 50.017 110.109 51.465 111.179 53.101 111.966 C 54.675 112.753 56.374 113.319 58.105 113.634 C 60.497 114.075 62.92 114.295 65.375 114.295 C 67.798 114.295 70.221 114.075 72.613 113.634 C 74.407 113.288 76.106 112.721 77.742 111.935 C 79.379 111.117 80.889 110.047 82.211 108.756 C 83.438 107.529 84.446 106.113 85.169 104.539 C 85.83 103.029 86.334 101.455 86.648 99.819 C 87.026 97.805 87.215 95.728 87.215 93.682 L 87.215 59.411 L 92.785 59.411 L 92.785 98.088 C 92.785 100.07 92.596 102.085 92.25 104.036 C 91.967 105.546 91.526 107.025 90.897 108.442 C 90.362 109.669 89.67 110.833 88.883 111.935 C 88.096 112.973 87.183 113.949 86.145 114.799 C 85.075 115.711 83.879 116.498 82.652 117.127 C 81.11 117.914 79.505 118.543 77.837 119.047 C 76.106 119.551 74.312 119.897 72.518 120.117 C 70.127 120.432 67.766 120.589 65.375 120.589 Z " fill-rule="evenodd" fill="rgb(0,204,255)"/><path d=" M 105.027 106.333 C 106.097 106.868 107.23 107.214 108.426 107.434 C 110.44 107.812 112.485 108.001 114.531 108.001 C 116.577 108.001 118.622 107.812 120.636 107.434 C 121.832 107.214 123.028 106.837 124.129 106.27 C 125.168 105.767 126.112 105.106 126.93 104.287 C 127.623 103.595 128.189 102.808 128.598 101.896 C 129.07 100.889 129.416 99.787 129.605 98.686 C 129.92 97.018 130.077 95.35 130.077 93.682 L 130.077 53.117 L 148.236 53.117 L 148.236 98.088 C 148.236 100.448 148.015 102.84 147.606 105.2 C 147.229 107.183 146.631 109.102 145.844 110.959 C 145.089 112.627 144.176 114.201 143.074 115.68 C 142.005 117.127 140.746 118.449 139.361 119.613 C 137.913 120.841 136.34 121.879 134.672 122.729 C 132.784 123.705 130.801 124.491 128.756 125.089 C 126.679 125.687 124.57 126.096 122.461 126.38 C 119.818 126.694 117.175 126.883 114.531 126.883 C 111.793 126.883 109.087 126.694 106.38 126.348 C 104.177 126.065 102.037 125.593 99.929 124.963 C 98.009 124.397 96.152 123.642 94.359 122.729 C 92.785 121.911 91.275 120.935 89.89 119.802 C 88.505 118.638 87.215 117.348 86.113 115.9 C 85.012 114.452 84.099 112.91 83.344 111.242 C 82.526 109.417 81.959 107.497 81.582 105.546 C 81.141 103.249 80.921 100.889 80.921 98.56 L 80.921 53.117 L 99.205 53.117 L 99.205 93.682 C 99.205 95.35 99.362 97.018 99.677 98.686 C 99.866 99.819 100.212 100.92 100.684 101.959 C 101.093 102.871 101.66 103.69 102.384 104.413 C 103.139 105.2 104.051 105.83 105.027 106.333 Z  M 114.531 120.589 C 112.076 120.589 109.622 120.4 107.167 120.086 C 105.342 119.865 103.516 119.488 101.754 118.921 C 100.181 118.481 98.702 117.851 97.254 117.127 C 96.058 116.498 94.925 115.774 93.855 114.924 C 92.848 114.075 91.935 113.131 91.117 112.092 C 90.33 111.022 89.638 109.889 89.103 108.662 C 88.474 107.309 88.033 105.861 87.75 104.382 C 87.404 102.462 87.215 100.511 87.215 98.56 L 87.215 59.411 L 92.911 59.411 L 92.911 93.682 C 92.911 95.728 93.1 97.805 93.477 99.819 C 93.761 101.455 94.264 103.06 94.957 104.571 C 95.68 106.144 96.656 107.592 97.883 108.851 C 99.174 110.109 100.653 111.179 102.258 111.966 C 103.831 112.753 105.531 113.319 107.261 113.634 C 109.653 114.075 112.076 114.295 114.531 114.295 C 116.954 114.295 119.377 114.075 121.769 113.634 C 123.563 113.288 125.294 112.721 126.899 111.935 C 128.567 111.117 130.046 110.047 131.368 108.756 C 132.595 107.529 133.602 106.113 134.326 104.539 C 135.018 103.029 135.522 101.455 135.805 99.819 C 136.183 97.805 136.371 95.728 136.371 93.682 L 136.371 59.411 L 141.942 59.411 L 141.942 98.088 C 141.942 100.07 141.784 102.085 141.407 104.036 C 141.123 105.546 140.683 107.025 140.053 108.442 C 139.518 109.669 138.857 110.833 138.039 111.935 C 137.253 112.973 136.34 113.949 135.333 114.799 C 134.231 115.711 133.067 116.498 131.808 117.127 C 130.266 117.914 128.661 118.543 126.993 119.047 C 125.262 119.551 123.469 119.897 121.675 120.117 C 119.314 120.432 116.923 120.589 114.531 120.589 Z " fill-rule="evenodd" fill="rgb(0,204,255)"/></g></g><defs><filter id="00BWCdxQpb7SiK6e48PE36LumBfuxPIn" x="-200%" y="-200%" width="400%" height="400%" filterUnits="objectBoundingBox" color-interpolation-filters="sRGB"><feGaussianBlur xmlns="http://www.w3.org/2000/svg" in="SourceGraphic" stdDeviation="2.146804531419514"/><feOffset xmlns="http://www.w3.org/2000/svg" dx="0" dy="3" result="pf_100_offsetBlur"/><feFlood xmlns="http://www.w3.org/2000/svg" flood-color="#000000" flood-opacity="0.2"/><feComposite xmlns="http://www.w3.org/2000/svg" in2="pf_100_offsetBlur" operator="in" result="pf_100_dropShadow"/><feBlend xmlns="http://www.w3.org/2000/svg" in="SourceGraphic" in2="pf_100_dropShadow" mode="normal"/></filter></defs></g></svg>