<?xml version="1.0" encoding="UTF-8" standalone="no"?><!-- Generator: Gravit.io --><svg xmlns="http://www.w3.org/2000/svg" xmlns:xlink="http://www.w3.org/1999/xlink" style="isolation:isolate" viewBox="0 0 5385.827 1417.323" width="5385.827pt" height="1417.323pt"><defs><clipPath id="_clipPath_Ed1wwXDH6sp92fOSFbGPes3wZkXRPQaG"><rect width="5385.827" height="1417.323"/></clipPath></defs><g clip-path="url(#_clipPath_Ed1wwXDH6sp92fOSFbGPes3wZkXRPQaG)"><g><g><path d="M 42.492 125.473 L 42.492 125.473 C 124.77 125.473 191.571 192.273 191.571 274.552 L 191.571 1291.85 C 191.571 1291.85 191.571 1291.85 191.571 1291.85 L 191.571 1291.85 C 109.292 1291.85 42.492 1225.05 42.492 1142.771 L 42.492 125.473 C 42.492 125.473 42.492 125.473 42.492 125.473 Z" style="stroke:none;fill:#3A589A;stroke-miterlimit:10;"/><path d="M 427.277 266.493 L 427.277 266.493 C 468.416 266.493 501.816 299.893 501.816 341.033 L 501.816 687.476 C 501.816 687.476 501.816 687.476 501.816 687.476 L 427.277 687.476 C 386.137 687.476 352.737 654.076 352.737 612.936 L 352.737 341.033 C 352.737 299.893 386.137 266.493 427.277 266.493 Z" style="stroke:none;fill:#367AB9;stroke-miterlimit:10;"/><path d="M 352.737 810.43 L 427.277 810.43 C 468.416 810.43 501.816 843.83 501.816 884.97 L 501.816 1156.873 C 501.816 1198.013 468.416 1231.413 427.277 1231.413 L 427.277 1231.413 C 386.137 1231.413 352.737 1198.013 352.737 1156.873 L 352.737 810.43 C 352.737 810.43 352.737 810.43 352.737 810.43 Z" style="stroke:none;fill:#367AB9;stroke-miterlimit:10;"/><path d="M 812.062 125.473 L 812.062 125.473 L 812.062 1142.771 C 812.062 1225.05 745.262 1291.85 662.983 1291.85 L 662.983 1291.85 L 662.983 274.552 C 662.983 192.273 729.783 125.473 812.062 125.473 Z" style="stroke:none;fill:#53B7EA;stroke-miterlimit:10;"/></g><path d=" M 3600.935 536.311 L 3575.735 583.411 L 3575.735 583.411 Q 3571.235 590.611 3566.285 594.211 L 3566.285 594.211 L 3566.285 594.211 Q 3561.335 597.811 3553.535 597.811 L 3553.535 597.811 L 3553.535 597.811 Q 3546.635 597.811 3538.685 593.461 L 3538.685 593.461 L 3538.685 593.461 Q 3530.735 589.111 3520.685 583.711 L 3520.685 583.711 L 3520.685 583.711 Q 3510.635 578.311 3497.735 573.961 L 3497.735 573.961 L 3497.735 573.961 Q 3484.835 569.611 3468.335 569.611 L 3468.335 569.611 L 3468.335 569.611 Q 3439.835 569.611 3425.885 581.761 L 3425.885 581.761 L 3425.885 581.761 Q 3411.935 593.911 3411.935 614.611 L 3411.935 614.611 L 3411.935 614.611 Q 3411.935 627.811 3420.335 636.511 L 3420.335 636.511 L 3420.335 636.511 Q 3428.735 645.211 3442.385 651.511 L 3442.385 651.511 L 3442.385 651.511 Q 3456.035 657.811 3473.585 663.061 L 3473.585 663.061 L 3473.585 663.061 Q 3491.135 668.311 3509.435 674.761 L 3509.435 674.761 L 3509.435 674.761 Q 3527.735 681.211 3545.285 689.911 L 3545.285 689.911 L 3545.285 689.911 Q 3562.835 698.611 3576.485 712.111 L 3576.485 712.111 L 3576.485 712.111 Q 3590.135 725.611 3598.535 744.961 L 3598.535 744.961 L 3598.535 744.961 Q 3606.935 764.311 3606.935 791.611 L 3606.935 791.611 L 3606.935 791.611 Q 3606.935 821.911 3596.435 848.311 L 3596.435 848.311 L 3596.435 848.311 Q 3585.935 874.711 3565.985 894.361 L 3565.985 894.361 L 3565.985 894.361 Q 3546.035 914.011 3516.785 925.261 L 3516.785 925.261 L 3516.785 925.261 Q 3487.535 936.511 3450.335 936.511 L 3450.335 936.511 L 3450.335 936.511 Q 3429.935 936.511 3408.785 932.311 L 3408.785 932.311 L 3408.785 932.311 Q 3387.635 928.111 3367.835 920.461 L 3367.835 920.461 L 3367.835 920.461 Q 3348.035 912.811 3330.635 902.311 L 3330.635 902.311 L 3330.635 902.311 Q 3313.235 891.811 3300.335 878.911 L 3300.335 878.911 L 3330.335 831.511 L 3330.335 831.511 Q 3333.635 826.111 3339.635 822.811 L 3339.635 822.811 L 3339.635 822.811 Q 3345.635 819.511 3352.535 819.511 L 3352.535 819.511 L 3352.535 819.511 Q 3361.535 819.511 3370.685 825.211 L 3370.685 825.211 L 3370.685 825.211 Q 3379.835 830.911 3391.385 837.811 L 3391.385 837.811 L 3391.385 837.811 Q 3402.935 844.711 3417.935 850.411 L 3417.935 850.411 L 3417.935 850.411 Q 3432.935 856.111 3453.335 856.111 L 3453.335 856.111 L 3453.335 856.111 Q 3480.935 856.111 3496.235 843.961 L 3496.235 843.961 L 3496.235 843.961 Q 3511.535 831.811 3511.535 805.411 L 3511.535 805.411 L 3511.535 805.411 Q 3511.535 790.111 3503.135 780.511 L 3503.135 780.511 L 3503.135 780.511 Q 3494.735 770.911 3481.085 764.611 L 3481.085 764.611 L 3481.085 764.611 Q 3467.435 758.311 3450.035 753.511 L 3450.035 753.511 L 3450.035 753.511 Q 3432.635 748.711 3414.335 742.861 L 3414.335 742.861 L 3414.335 742.861 Q 3396.035 737.011 3378.635 728.461 L 3378.635 728.461 L 3378.635 728.461 Q 3361.235 719.911 3347.585 705.961 L 3347.585 705.961 L 3347.585 705.961 Q 3333.935 692.011 3325.535 671.161 L 3325.535 671.161 L 3325.535 671.161 Q 3317.135 650.311 3317.135 619.711 L 3317.135 619.711 L 3317.135 619.711 Q 3317.135 595.111 3327.035 571.711 L 3327.035 571.711 L 3327.035 571.711 Q 3336.935 548.311 3356.135 530.011 L 3356.135 530.011 L 3356.135 530.011 Q 3375.335 511.711 3403.235 500.761 L 3403.235 500.761 L 3403.235 500.761 Q 3431.135 489.811 3467.135 489.811 L 3467.135 489.811 L 3467.135 489.811 Q 3487.235 489.811 3506.285 492.961 L 3506.285 492.961 L 3506.285 492.961 Q 3525.335 496.111 3542.435 502.261 L 3542.435 502.261 L 3542.435 502.261 Q 3559.535 508.411 3574.385 516.961 L 3574.385 516.961 L 3574.385 516.961 Q 3589.235 525.511 3600.935 536.311 L 3600.935 536.311 Z  M 3766.535 936.511 L 3766.535 936.511 L 3766.535 936.511 Q 3744.335 936.511 3727.385 930.061 L 3727.385 930.061 L 3727.385 930.061 Q 3710.435 923.611 3698.885 911.761 L 3698.885 911.761 L 3698.885 911.761 Q 3687.335 899.911 3681.335 883.111 L 3681.335 883.111 L 3681.335 883.111 Q 3675.335 866.311 3675.335 845.611 L 3675.335 845.611 L 3675.335 684.811 L 3648.935 684.811 L 3648.935 684.811 Q 3641.735 684.811 3636.635 680.161 L 3636.635 680.161 L 3636.635 680.161 Q 3631.535 675.511 3631.535 666.511 L 3631.535 666.511 L 3631.535 630.211 L 3681.035 620.611 L 3699.335 544.711 L 3699.335 544.711 Q 3702.935 530.311 3719.735 530.311 L 3719.735 530.311 L 3768.335 530.311 L 3768.335 621.211 L 3843.935 621.211 L 3843.935 684.811 L 3768.335 684.811 L 3768.335 839.311 L 3768.335 839.311 Q 3768.335 850.111 3773.585 857.161 L 3773.585 857.161 L 3773.585 857.161 Q 3778.835 864.211 3788.735 864.211 L 3788.735 864.211 L 3788.735 864.211 Q 3793.835 864.211 3797.285 863.161 L 3797.285 863.161 L 3797.285 863.161 Q 3800.735 862.111 3803.285 860.761 L 3803.285 860.761 L 3803.285 860.761 Q 3805.835 859.411 3808.085 858.361 L 3808.085 858.361 L 3808.085 858.361 Q 3810.335 857.311 3813.335 857.311 L 3813.335 857.311 L 3813.335 857.311 Q 3817.535 857.311 3820.085 859.261 L 3820.085 859.261 L 3820.085 859.261 Q 3822.635 861.211 3825.335 865.411 L 3825.335 865.411 L 3853.535 909.511 L 3853.535 909.511 Q 3835.535 923.011 3813.035 929.761 L 3813.035 929.761 L 3813.035 929.761 Q 3790.535 936.511 3766.535 936.511 Z  M 4030.535 615.811 L 4030.535 615.811 L 4030.535 615.811 Q 4061.435 615.811 4087.085 625.411 L 4087.085 625.411 L 4087.085 625.411 Q 4112.735 635.011 4131.185 653.311 L 4131.185 653.311 L 4131.185 653.311 Q 4149.635 671.611 4159.985 698.161 L 4159.985 698.161 L 4159.985 698.161 Q 4170.335 724.711 4170.335 758.311 L 4170.335 758.311 L 4170.335 758.311 Q 4170.335 768.811 4169.435 775.411 L 4169.435 775.411 L 4169.435 775.411 Q 4168.535 782.011 4166.135 785.911 L 4166.135 785.911 L 4166.135 785.911 Q 4163.735 789.811 4159.685 791.311 L 4159.685 791.311 L 4159.685 791.311 Q 4155.635 792.811 4149.335 792.811 L 4149.335 792.811 L 3969.935 792.811 L 3969.935 792.811 Q 3974.435 831.811 3993.635 849.361 L 3993.635 849.361 L 3993.635 849.361 Q 4012.835 866.911 4043.135 866.911 L 4043.135 866.911 L 4043.135 866.911 Q 4059.335 866.911 4071.035 863.011 L 4071.035 863.011 L 4071.035 863.011 Q 4082.735 859.111 4091.885 854.311 L 4091.885 854.311 L 4091.885 854.311 Q 4101.035 849.511 4108.685 845.611 L 4108.685 845.611 L 4108.685 845.611 Q 4116.335 841.711 4124.735 841.711 L 4124.735 841.711 L 4124.735 841.711 Q 4135.835 841.711 4141.535 849.811 L 4141.535 849.811 L 4168.535 883.111 L 4168.535 883.111 Q 4154.135 899.611 4137.485 909.961 L 4137.485 909.961 L 4137.485 909.961 Q 4120.835 920.311 4103.285 926.161 L 4103.285 926.161 L 4103.285 926.161 Q 4085.735 932.011 4068.185 934.261 L 4068.185 934.261 L 4068.185 934.261 Q 4050.635 936.511 4034.735 936.511 L 4034.735 936.511 L 4034.735 936.511 Q 4002.035 936.511 3973.385 925.861 L 3973.385 925.861 L 3973.385 925.861 Q 3944.735 915.211 3923.285 894.211 L 3923.285 894.211 L 3923.285 894.211 Q 3901.835 873.211 3889.385 842.011 L 3889.385 842.011 L 3889.385 842.011 Q 3876.935 810.811 3876.935 769.411 L 3876.935 769.411 L 3876.935 769.411 Q 3876.935 738.211 3887.585 710.311 L 3887.585 710.311 L 3887.585 710.311 Q 3898.235 682.411 3918.185 661.411 L 3918.185 661.411 L 3918.185 661.411 Q 3938.135 640.411 3966.485 628.111 L 3966.485 628.111 L 3966.485 628.111 Q 3994.835 615.811 4030.535 615.811 Z  M 4032.335 680.011 L 4032.335 680.011 L 4032.335 680.011 Q 4005.635 680.011 3990.635 695.161 L 3990.635 695.161 L 3990.635 695.161 Q 3975.635 710.311 3970.835 738.811 L 3970.835 738.811 L 4086.935 738.811 L 4086.935 738.811 Q 4086.935 727.711 4084.085 717.211 L 4084.085 717.211 L 4084.085 717.211 Q 4081.235 706.711 4074.785 698.461 L 4074.785 698.461 L 4074.785 698.461 Q 4068.335 690.211 4057.835 685.111 L 4057.835 685.111 L 4057.835 685.111 Q 4047.335 680.011 4032.335 680.011 Z  M 4226.735 620.611 L 4319.735 620.611 L 4319.735 931.711 L 4226.735 931.711 L 4226.735 620.611 Z  M 4330.535 535.411 L 4330.535 535.411 L 4330.535 535.411 Q 4330.535 546.511 4326.035 556.261 L 4326.035 556.261 L 4326.035 556.261 Q 4321.535 566.011 4313.735 573.361 L 4313.735 573.361 L 4313.735 573.361 Q 4305.935 580.711 4295.585 585.061 L 4295.585 585.061 L 4295.585 585.061 Q 4285.235 589.411 4273.535 589.411 L 4273.535 589.411 L 4273.535 589.411 Q 4262.135 589.411 4252.235 585.061 L 4252.235 585.061 L 4252.235 585.061 Q 4242.335 580.711 4234.685 573.361 L 4234.685 573.361 L 4234.685 573.361 Q 4227.035 566.011 4222.685 556.261 L 4222.685 556.261 L 4222.685 556.261 Q 4218.335 546.511 4218.335 535.411 L 4218.335 535.411 L 4218.335 535.411 Q 4218.335 524.011 4222.685 514.111 L 4222.685 514.111 L 4222.685 514.111 Q 4227.035 504.211 4234.685 496.711 L 4234.685 496.711 L 4234.685 496.711 Q 4242.335 489.211 4252.235 485.011 L 4252.235 485.011 L 4252.235 485.011 Q 4262.135 480.811 4273.535 480.811 L 4273.535 480.811 L 4273.535 480.811 Q 4285.235 480.811 4295.585 485.011 L 4295.585 485.011 L 4295.585 485.011 Q 4305.935 489.211 4313.735 496.711 L 4313.735 496.711 L 4313.735 496.711 Q 4321.535 504.211 4326.035 514.111 L 4326.035 514.111 L 4326.035 514.111 Q 4330.535 524.011 4330.535 535.411 Z  M 4487.735 931.711 L 4394.735 931.711 L 4394.735 620.611 L 4452.335 620.611 L 4452.335 620.611 Q 4461.035 620.611 4466.885 624.511 L 4466.885 624.511 L 4466.885 624.511 Q 4472.735 628.411 4475.135 636.211 L 4475.135 636.211 L 4480.535 654.211 L 4480.535 654.211 Q 4489.535 645.811 4499.135 638.611 L 4499.135 638.611 L 4499.135 638.611 Q 4508.735 631.411 4519.685 626.461 L 4519.685 626.461 L 4519.685 626.461 Q 4530.635 621.511 4543.385 618.661 L 4543.385 618.661 L 4543.385 618.661 Q 4556.135 615.811 4571.135 615.811 L 4571.135 615.811 L 4571.135 615.811 Q 4596.635 615.811 4616.285 624.661 L 4616.285 624.661 L 4616.285 624.661 Q 4635.935 633.511 4649.435 649.261 L 4649.435 649.261 L 4649.435 649.261 Q 4662.935 665.011 4669.835 686.761 L 4669.835 686.761 L 4669.835 686.761 Q 4676.735 708.511 4676.735 734.011 L 4676.735 734.011 L 4676.735 931.711 L 4583.735 931.711 L 4583.735 734.011 L 4583.735 734.011 Q 4583.735 711.211 4573.235 698.461 L 4573.235 698.461 L 4573.235 698.461 Q 4562.735 685.711 4542.335 685.711 L 4542.335 685.711 L 4542.335 685.711 Q 4527.035 685.711 4513.535 692.311 L 4513.535 692.311 L 4513.535 692.311 Q 4500.035 698.911 4487.735 710.011 L 4487.735 710.011 L 4487.735 931.711 Z  M 4742.735 482.611 L 4835.735 482.611 L 4835.735 734.311 L 4849.535 734.311 L 4849.535 734.311 Q 4858.235 734.311 4862.885 731.911 L 4862.885 731.911 L 4862.885 731.911 Q 4867.535 729.511 4871.735 723.211 L 4871.735 723.211 L 4930.535 635.611 L 4930.535 635.611 Q 4935.635 627.811 4942.685 624.211 L 4942.685 624.211 L 4942.685 624.211 Q 4949.735 620.611 4960.535 620.611 L 4960.535 620.611 L 5045.735 620.611 L 4965.335 731.311 L 4965.335 731.311 Q 4959.635 739.111 4952.885 745.111 L 4952.885 745.111 L 4952.885 745.111 Q 4946.135 751.111 4938.335 755.911 L 4938.335 755.911 L 4938.335 755.911 Q 4951.835 766.111 4961.735 782.911 L 4961.735 782.911 L 5049.335 931.711 L 4965.335 931.711 L 4965.335 931.711 Q 4954.835 931.711 4947.185 928.261 L 4947.185 928.261 L 4947.185 928.261 Q 4939.535 924.811 4934.735 916.111 L 4934.735 916.111 L 4875.935 806.011 L 4875.935 806.011 Q 4871.735 798.511 4867.235 796.261 L 4867.235 796.261 L 4867.235 796.261 Q 4862.735 794.011 4853.735 794.011 L 4853.735 794.011 L 4835.735 794.011 L 4835.735 931.711 L 4742.735 931.711 L 4742.735 482.611 Z  M 5203.535 615.811 L 5203.535 615.811 L 5203.535 615.811 Q 5234.435 615.811 5260.085 625.411 L 5260.085 625.411 L 5260.085 625.411 Q 5285.735 635.011 5304.185 653.311 L 5304.185 653.311 L 5304.185 653.311 Q 5322.635 671.611 5332.985 698.161 L 5332.985 698.161 L 5332.985 698.161 Q 5343.335 724.711 5343.335 758.311 L 5343.335 758.311 L 5343.335 758.311 Q 5343.335 768.811 5342.435 775.411 L 5342.435 775.411 L 5342.435 775.411 Q 5341.535 782.011 5339.135 785.911 L 5339.135 785.911 L 5339.135 785.911 Q 5336.735 789.811 5332.685 791.311 L 5332.685 791.311 L 5332.685 791.311 Q 5328.635 792.811 5322.335 792.811 L 5322.335 792.811 L 5142.935 792.811 L 5142.935 792.811 Q 5147.435 831.811 5166.635 849.361 L 5166.635 849.361 L 5166.635 849.361 Q 5185.835 866.911 5216.135 866.911 L 5216.135 866.911 L 5216.135 866.911 Q 5232.335 866.911 5244.035 863.011 L 5244.035 863.011 L 5244.035 863.011 Q 5255.735 859.111 5264.885 854.311 L 5264.885 854.311 L 5264.885 854.311 Q 5274.035 849.511 5281.685 845.611 L 5281.685 845.611 L 5281.685 845.611 Q 5289.335 841.711 5297.735 841.711 L 5297.735 841.711 L 5297.735 841.711 Q 5308.835 841.711 5314.535 849.811 L 5314.535 849.811 L 5341.535 883.111 L 5341.535 883.111 Q 5327.135 899.611 5310.485 909.961 L 5310.485 909.961 L 5310.485 909.961 Q 5293.835 920.311 5276.285 926.161 L 5276.285 926.161 L 5276.285 926.161 Q 5258.735 932.011 5241.185 934.261 L 5241.185 934.261 L 5241.185 934.261 Q 5223.635 936.511 5207.735 936.511 L 5207.735 936.511 L 5207.735 936.511 Q 5175.035 936.511 5146.385 925.861 L 5146.385 925.861 L 5146.385 925.861 Q 5117.735 915.211 5096.285 894.211 L 5096.285 894.211 L 5096.285 894.211 Q 5074.835 873.211 5062.385 842.011 L 5062.385 842.011 L 5062.385 842.011 Q 5049.935 810.811 5049.935 769.411 L 5049.935 769.411 L 5049.935 769.411 Q 5049.935 738.211 5060.585 710.311 L 5060.585 710.311 L 5060.585 710.311 Q 5071.235 682.411 5091.185 661.411 L 5091.185 661.411 L 5091.185 661.411 Q 5111.135 640.411 5139.485 628.111 L 5139.485 628.111 L 5139.485 628.111 Q 5167.835 615.811 5203.535 615.811 Z  M 5205.335 680.011 L 5205.335 680.011 L 5205.335 680.011 Q 5178.635 680.011 5163.635 695.161 L 5163.635 695.161 L 5163.635 695.161 Q 5148.635 710.311 5143.835 738.811 L 5143.835 738.811 L 5259.935 738.811 L 5259.935 738.811 Q 5259.935 727.711 5257.085 717.211 L 5257.085 717.211 L 5257.085 717.211 Q 5254.235 706.711 5247.785 698.461 L 5247.785 698.461 L 5247.785 698.461 Q 5241.335 690.211 5230.835 685.111 L 5230.835 685.111 L 5230.835 685.111 Q 5220.335 680.011 5205.335 680.011 Z  M 1151.735 931.711 L 1016.735 494.611 L 1101.935 494.611 L 1101.935 494.611 Q 1115.135 494.611 1123.985 500.611 L 1123.985 500.611 L 1123.985 500.611 Q 1132.835 506.611 1135.535 516.511 L 1135.535 516.511 L 1195.535 744.511 L 1195.535 744.511 Q 1198.535 755.611 1201.535 768.211 L 1201.535 768.211 L 1201.535 768.211 Q 1204.535 780.811 1206.035 794.611 L 1206.035 794.611 L 1206.035 794.611 Q 1209.035 780.511 1212.635 768.061 L 1212.635 768.061 L 1212.635 768.061 Q 1216.235 755.611 1219.535 744.511 L 1219.535 744.511 L 1290.335 516.511 L 1290.335 516.511 Q 1293.035 508.111 1301.885 501.361 L 1301.885 501.361 L 1301.885 501.361 Q 1310.735 494.611 1323.335 494.611 L 1323.335 494.611 L 1353.335 494.611 L 1353.335 494.611 Q 1366.535 494.611 1375.085 500.461 L 1375.085 500.461 L 1375.085 500.461 Q 1383.635 506.311 1386.935 516.511 L 1386.935 516.511 L 1457.135 744.511 L 1457.135 744.511 Q 1460.435 755.011 1464.035 766.861 L 1464.035 766.861 L 1464.035 766.861 Q 1467.635 778.711 1470.335 792.211 L 1470.335 792.211 L 1470.335 792.211 Q 1472.735 779.011 1475.285 767.011 L 1475.285 767.011 L 1475.285 767.011 Q 1477.835 755.011 1480.535 744.511 L 1480.535 744.511 L 1540.535 516.511 L 1540.535 516.511 Q 1542.935 507.811 1551.935 501.211 L 1551.935 501.211 L 1551.935 501.211 Q 1560.935 494.611 1573.535 494.611 L 1573.535 494.611 L 1653.335 494.611 L 1518.335 931.711 L 1426.535 931.711 L 1344.335 660.811 L 1344.335 660.811 Q 1342.235 654.511 1339.985 647.011 L 1339.985 647.011 L 1339.985 647.011 Q 1337.735 639.511 1335.635 631.111 L 1335.635 631.111 L 1335.635 631.111 Q 1333.535 639.511 1331.285 647.011 L 1331.285 647.011 L 1331.285 647.011 Q 1329.035 654.511 1326.935 660.811 L 1326.935 660.811 L 1243.535 931.711 L 1151.735 931.711 Z  M 1695.335 620.611 L 1788.335 620.611 L 1788.335 931.711 L 1695.335 931.711 L 1695.335 620.611 Z  M 1799.135 535.411 L 1799.135 535.411 L 1799.135 535.411 Q 1799.135 546.511 1794.635 556.261 L 1794.635 556.261 L 1794.635 556.261 Q 1790.135 566.011 1782.335 573.361 L 1782.335 573.361 L 1782.335 573.361 Q 1774.535 580.711 1764.185 585.061 L 1764.185 585.061 L 1764.185 585.061 Q 1753.835 589.411 1742.135 589.411 L 1742.135 589.411 L 1742.135 589.411 Q 1730.735 589.411 1720.835 585.061 L 1720.835 585.061 L 1720.835 585.061 Q 1710.935 580.711 1703.285 573.361 L 1703.285 573.361 L 1703.285 573.361 Q 1695.635 566.011 1691.285 556.261 L 1691.285 556.261 L 1691.285 556.261 Q 1686.935 546.511 1686.935 535.411 L 1686.935 535.411 L 1686.935 535.411 Q 1686.935 524.011 1691.285 514.111 L 1691.285 514.111 L 1691.285 514.111 Q 1695.635 504.211 1703.285 496.711 L 1703.285 496.711 L 1703.285 496.711 Q 1710.935 489.211 1720.835 485.011 L 1720.835 485.011 L 1720.835 485.011 Q 1730.735 480.811 1742.135 480.811 L 1742.135 480.811 L 1742.135 480.811 Q 1753.835 480.811 1764.185 485.011 L 1764.185 485.011 L 1764.185 485.011 Q 1774.535 489.211 1782.335 496.711 L 1782.335 496.711 L 1782.335 496.711 Q 1790.135 504.211 1794.635 514.111 L 1794.635 514.111 L 1794.635 514.111 Q 1799.135 524.011 1799.135 535.411 Z  M 1866.335 482.611 L 1959.335 482.611 L 1959.335 931.711 L 1866.335 931.711 L 1866.335 482.611 Z  M 2037.335 482.611 L 2130.335 482.611 L 2130.335 931.711 L 2037.335 931.711 L 2037.335 482.611 Z  M 2208.335 620.611 L 2301.335 620.611 L 2301.335 931.711 L 2208.335 931.711 L 2208.335 620.611 Z  M 2312.135 535.411 L 2312.135 535.411 L 2312.135 535.411 Q 2312.135 546.511 2307.635 556.261 L 2307.635 556.261 L 2307.635 556.261 Q 2303.135 566.011 2295.335 573.361 L 2295.335 573.361 L 2295.335 573.361 Q 2287.535 580.711 2277.185 585.061 L 2277.185 585.061 L 2277.185 585.061 Q 2266.835 589.411 2255.135 589.411 L 2255.135 589.411 L 2255.135 589.411 Q 2243.735 589.411 2233.835 585.061 L 2233.835 585.061 L 2233.835 585.061 Q 2223.935 580.711 2216.285 573.361 L 2216.285 573.361 L 2216.285 573.361 Q 2208.635 566.011 2204.285 556.261 L 2204.285 556.261 L 2204.285 556.261 Q 2199.935 546.511 2199.935 535.411 L 2199.935 535.411 L 2199.935 535.411 Q 2199.935 524.011 2204.285 514.111 L 2204.285 514.111 L 2204.285 514.111 Q 2208.635 504.211 2216.285 496.711 L 2216.285 496.711 L 2216.285 496.711 Q 2223.935 489.211 2233.835 485.011 L 2233.835 485.011 L 2233.835 485.011 Q 2243.735 480.811 2255.135 480.811 L 2255.135 480.811 L 2255.135 480.811 Q 2266.835 480.811 2277.185 485.011 L 2277.185 485.011 L 2277.185 485.011 Q 2287.535 489.211 2295.335 496.711 L 2295.335 496.711 L 2295.335 496.711 Q 2303.135 504.211 2307.635 514.111 L 2307.635 514.111 L 2307.635 514.111 Q 2312.135 524.011 2312.135 535.411 Z  M 2633.735 931.711 L 2591.135 931.711 L 2591.135 931.711 Q 2577.935 931.711 2571.185 928.111 L 2571.185 928.111 L 2571.185 928.111 Q 2564.435 924.511 2559.935 913.111 L 2559.935 913.111 L 2553.335 896.011 L 2553.335 896.011 Q 2541.635 905.911 2530.835 913.411 L 2530.835 913.411 L 2530.835 913.411 Q 2520.035 920.911 2508.485 926.161 L 2508.485 926.161 L 2508.485 926.161 Q 2496.935 931.411 2483.885 933.961 L 2483.885 933.961 L 2483.885 933.961 Q 2470.835 936.511 2454.935 936.511 L 2454.935 936.511 L 2454.935 936.511 Q 2433.635 936.511 2416.235 930.943 L 2416.235 930.943 L 2416.235 930.943 Q 2398.835 925.375 2386.685 914.54 L 2386.685 914.54 L 2386.685 914.54 Q 2374.535 903.705 2367.935 887.603 L 2367.935 887.603 L 2367.935 887.603 Q 2361.335 871.501 2361.335 850.433 L 2361.335 850.433 L 2361.335 850.433 Q 2361.335 833.879 2369.735 816.423 L 2369.735 816.423 L 2369.735 816.423 Q 2378.135 798.966 2398.835 784.67 L 2398.835 784.67 L 2398.835 784.67 Q 2419.535 770.374 2454.635 760.743 L 2454.635 760.743 L 2454.635 760.743 Q 2489.735 751.111 2543.135 751.111 L 2543.135 751.111 L 2543.135 737.789 L 2543.135 737.789 Q 2543.135 710.236 2531.885 697.974 L 2531.885 697.974 L 2531.885 697.974 Q 2520.635 685.711 2499.935 685.711 L 2499.935 685.711 L 2499.935 685.711 Q 2483.435 685.711 2472.935 689.311 L 2472.935 689.311 L 2472.935 689.311 Q 2462.435 692.911 2454.185 697.411 L 2454.185 697.411 L 2454.185 697.411 Q 2445.935 701.911 2438.135 705.511 L 2438.135 705.511 L 2438.135 705.511 Q 2430.335 709.111 2419.535 709.111 L 2419.535 709.111 L 2419.535 709.111 Q 2409.935 709.111 2403.185 704.461 L 2403.185 704.461 L 2403.185 704.461 Q 2396.435 699.811 2392.535 692.911 L 2392.535 692.911 L 2375.735 663.811 L 2375.735 663.811 Q 2403.935 638.911 2438.285 626.761 L 2438.285 626.761 L 2438.285 626.761 Q 2472.635 614.611 2511.935 614.611 L 2511.935 614.611 L 2511.935 614.611 Q 2540.135 614.611 2562.785 623.761 L 2562.785 623.761 L 2562.785 623.761 Q 2585.435 632.911 2601.185 649.261 L 2601.185 649.261 L 2601.185 649.261 Q 2616.935 665.611 2625.335 688.111 L 2625.335 688.111 L 2625.335 688.111 Q 2633.735 710.611 2633.735 737.311 L 2633.735 737.311 L 2633.735 931.711 Z  M 2484.335 875.011 L 2484.335 875.011 L 2484.335 875.011 Q 2502.335 875.011 2515.835 868.711 L 2515.835 868.711 L 2515.835 868.711 Q 2529.335 862.411 2543.135 848.311 L 2543.135 848.311 L 2543.135 805.711 L 2543.135 805.711 Q 2515.235 805.711 2497.235 809.343 L 2497.235 809.343 L 2497.235 809.343 Q 2479.235 812.974 2468.735 818.421 L 2468.735 818.421 L 2468.735 818.421 Q 2458.235 823.869 2454.185 830.829 L 2454.185 830.829 L 2454.185 830.829 Q 2450.135 837.789 2450.135 845.96 L 2450.135 845.96 L 2450.135 845.96 Q 2450.135 861.999 2458.835 868.505 L 2458.835 868.505 L 2458.835 868.505 Q 2467.535 875.011 2484.335 875.011 Z  M 2792.735 931.711 L 2699.735 931.711 L 2699.735 620.611 L 2757.335 620.611 L 2757.335 620.611 Q 2766.035 620.611 2771.885 624.511 L 2771.885 624.511 L 2771.885 624.511 Q 2777.735 628.411 2780.135 636.211 L 2780.135 636.211 L 2785.235 653.011 L 2785.235 653.011 Q 2793.035 644.911 2801.435 638.161 L 2801.435 638.161 L 2801.435 638.161 Q 2809.835 631.411 2819.585 626.461 L 2819.585 626.461 L 2819.585 626.461 Q 2829.335 621.511 2840.585 618.661 L 2840.585 618.661 L 2840.585 618.661 Q 2851.835 615.811 2865.335 615.811 L 2865.335 615.811 L 2865.335 615.811 Q 2893.535 615.811 2911.985 630.361 L 2911.985 630.361 L 2911.985 630.361 Q 2930.435 644.911 2940.035 669.211 L 2940.035 669.211 L 2940.035 669.211 Q 2947.835 654.811 2959.085 644.611 L 2959.085 644.611 L 2959.085 644.611 Q 2970.335 634.411 2983.385 628.111 L 2983.385 628.111 L 2983.385 628.111 Q 2996.435 621.811 3010.985 618.811 L 3010.985 618.811 L 3010.985 618.811 Q 3025.535 615.811 3039.935 615.811 L 3039.935 615.811 L 3039.935 615.811 Q 3066.635 615.811 3087.335 623.761 L 3087.335 623.761 L 3087.335 623.761 Q 3108.035 631.711 3121.985 646.861 L 3121.985 646.861 L 3121.985 646.861 Q 3135.935 662.011 3143.135 684.061 L 3143.135 684.061 L 3143.135 684.061 Q 3150.335 706.111 3150.335 734.011 L 3150.335 734.011 L 3150.335 931.711 L 3057.335 931.711 L 3057.335 734.011 L 3057.335 734.011 Q 3057.335 685.711 3015.935 685.711 L 3015.935 685.711 L 3015.935 685.711 Q 2997.035 685.711 2984.585 698.161 L 2984.585 698.161 L 2984.585 698.161 Q 2972.135 710.611 2972.135 734.011 L 2972.135 734.011 L 2972.135 931.711 L 2879.135 931.711 L 2879.135 734.011 L 2879.135 734.011 Q 2879.135 707.311 2868.635 696.511 L 2868.635 696.511 L 2868.635 696.511 Q 2858.135 685.711 2837.735 685.711 L 2837.735 685.711 L 2837.735 685.711 Q 2825.135 685.711 2813.885 691.411 L 2813.885 691.411 L 2813.885 691.411 Q 2802.635 697.111 2792.735 706.711 L 2792.735 706.711 L 2792.735 931.711 Z " fill="rgb(255,255,255)"/></g></g></svg>